<svg width="30" height="30" viewBox="0 0 30 30" fill="none" xmlns="http://www.w3.org/2000/svg">
<g clip-path="url(#clip0_684_346)">
<path d="M27.0465 2.23189C25.4063 0.591974 22.7474 0.591974 21.1072 2.23189L7.3844 15.9547C5.99246 17.3508 5.75712 19.5264 6.81834 21.1879L1.41107 26.5956C1.0075 26.9985 0.886646 27.6049 1.10496 28.1316C1.32327 28.6584 1.83766 29.0016 2.40787 29.0008C2.78161 29.0021 3.14034 28.8539 3.4042 28.5892L8.81147 23.1815C10.4722 24.2466 12.6506 24.011 14.0451 22.6154L27.7679 8.89262C29.4056 7.25135 29.4056 4.59416 27.7679 2.95289L27.0465 2.23189ZM2.74434 27.9275C2.55542 28.1062 2.25985 28.1062 2.07094 27.9275C1.88617 27.741 1.88617 27.4405 2.07094 27.2541L7.40774 21.9182L8.0816 22.5916L2.74434 27.9275ZM27.1081 8.23416L13.3853 21.9542C12.7726 22.5668 11.9417 22.9111 11.0753 22.9111C10.2088 22.9111 9.3779 22.5668 8.76527 21.9542L8.04567 21.2346C6.77212 19.9579 6.77212 17.8913 8.04567 16.6146L21.7657 2.89176C23.0421 1.61743 25.1093 1.61743 26.3857 2.89176L27.1081 3.61416C28.3821 4.89064 28.3821 6.95767 27.1081 8.23416Z" fill="#A4ACAD"/>
<path d="M24.0781 2.90358C23.4539 2.90134 22.8549 3.14926 22.4149 3.59191L20.0815 5.92525C19.9553 6.0411 19.9027 6.21681 19.9445 6.38296C19.9864 6.54911 20.1159 6.67899 20.2819 6.72128C20.4479 6.76357 20.6238 6.71148 20.74 6.58558L23.0733 4.25225C23.6353 3.71725 24.5181 3.71725 25.08 4.25225C25.2631 4.4291 25.5542 4.42657 25.7342 4.24656C25.9142 4.06655 25.9167 3.77549 25.7399 3.59238C25.3 3.15034 24.7017 2.90236 24.0781 2.90358Z" fill="#A4ACAD"/>
<path d="M18.0772 9.0556C18.201 9.05557 18.3196 9.00639 18.4071 8.91887L19.4072 7.9188C19.5285 7.80163 19.5772 7.62812 19.5345 7.46496C19.4918 7.3018 19.3643 7.17438 19.2012 7.13168C19.038 7.08897 18.8645 7.13762 18.7473 7.25893L17.7473 8.259C17.6138 8.39247 17.5739 8.59315 17.6461 8.76751C17.7184 8.94186 17.8885 9.05556 18.0772 9.0556Z" fill="#A4ACAD"/>
<path d="M16.7435 10.5896C16.8783 10.4548 16.9187 10.2521 16.8457 10.0759C16.7728 9.89977 16.6009 9.78491 16.4103 9.78491C16.2196 9.78491 16.0477 9.89977 15.9748 10.0759C15.9018 10.2521 15.9422 10.4548 16.0771 10.5896C16.2611 10.7736 16.5594 10.7736 16.7435 10.5896Z" fill="#A4ACAD"/>
<path d="M19.7474 12.9267L13.0801 19.5939C12.9588 19.7111 12.9102 19.8846 12.9529 20.0478C12.9956 20.2109 13.123 20.3383 13.2862 20.381C13.4493 20.4238 13.6228 20.3751 13.74 20.2538L20.4073 13.5865C20.5841 13.4034 20.5816 13.1123 20.4016 12.9323C20.2216 12.7523 19.9305 12.7498 19.7474 12.9267Z" fill="#A4ACAD"/>
</g>
<defs>
<clipPath id="clip0_684_346">
<rect width="28" height="28" fill="white" transform="translate(1 1)"/>
</clipPath>
</defs>
</svg>
