<svg width="30" height="30" viewBox="0 0 30 30" fill="none" xmlns="http://www.w3.org/2000/svg">
<path d="M22.6078 11.2746H22.2549C22.098 7.50991 19.0784 4.4903 15.3529 4.29422V0.490301C15.3529 0.255007 15.1961 0.0981445 14.9608 0.0981445C14.7255 0.0981445 14.5686 0.255007 14.5686 0.490301V4.29422C10.8039 4.4903 7.82353 7.50991 7.66667 11.2746H7.39216C7.15686 11.2746 7 11.4315 7 11.6668V13.6668C7 13.9021 7.15686 14.0589 7.39216 14.0589H7.66667L9.11765 29.5491C9.11765 29.7452 9.31372 29.9021 9.5098 29.9021H20.2941C20.4902 29.9021 20.6471 29.7452 20.6863 29.5491L22.1373 14.0589H22.6078C22.8431 14.0589 23 13.9021 23 13.6668V11.6668C23 11.4315 22.8039 11.2746 22.6078 11.2746ZM15.3529 5.07854C18.6471 5.27461 21.3137 7.94128 21.4706 11.2746H15.3529V5.07854ZM14.5686 5.07854V11.2746H8.45098C8.60784 7.94128 11.2353 5.27461 14.5686 5.07854ZM7.78431 12.0589H14.5686V13.2746H7.78431V12.0589ZM8.45098 14.0589H14.5686V16.6079H8.68627L8.45098 14.0589ZM19.9412 29.1177H9.86274L8.76471 17.353H14.5686V24.1374C14.5686 24.3726 14.7255 24.5295 14.9608 24.5295C15.1961 24.5295 15.3529 24.3726 15.3529 24.1374V17.353H21.0392L19.9412 29.1177ZM21.1176 16.5687H15.3529V14.0589H21.3529L21.1176 16.5687ZM22.2157 13.2746H15.3529V12.0589H22.2157V13.2746Z" fill="#A4ACAD"/>
<path d="M11.8235 18.5295C10.8824 18.5295 10.098 19.3139 10.098 20.255C10.098 21.1962 10.8824 21.9805 11.8235 21.9805C12.7647 21.9805 13.549 21.1962 13.549 20.255C13.549 19.3139 12.7647 18.5295 11.8235 18.5295ZM11.8235 21.1962C11.3137 21.1962 10.8824 20.7648 10.8824 20.255C10.8824 19.7452 11.3137 19.3139 11.8235 19.3139C12.3333 19.3139 12.7647 19.7452 12.7647 20.255C12.7647 20.7648 12.3333 21.1962 11.8235 21.1962Z" fill="#A4ACAD"/>
<path d="M17.7451 24.2942C16.8039 24.2942 16.0196 25.0785 16.0196 26.0197C16.0196 26.9609 16.7647 27.7452 17.7451 27.7452C18.6863 27.7452 19.4706 26.9609 19.4706 26.0197C19.4706 25.0785 18.6863 24.2942 17.7451 24.2942ZM17.7451 26.9609C17.2353 26.9609 16.8039 26.5295 16.8039 26.0197C16.8039 25.5099 17.1961 25.0785 17.7451 25.0785C18.2549 25.0785 18.6863 25.5099 18.6863 26.0197C18.6863 26.5295 18.2549 26.9609 17.7451 26.9609Z" fill="#A4ACAD"/>
<path d="M17.9804 19.0786C17.1961 19.0786 16.5294 19.7453 16.5294 20.5296C16.5294 21.3139 17.1961 21.9806 17.9804 21.9806C18.7647 21.9806 19.4314 21.3139 19.4314 20.5296C19.4314 19.7453 18.7647 19.0786 17.9804 19.0786ZM17.9804 21.1963C17.6275 21.1963 17.3137 20.8825 17.3137 20.5296C17.3137 20.1767 17.6275 19.8629 17.9804 19.8629C18.3333 19.8629 18.6471 20.1767 18.6471 20.5296C18.6471 20.8825 18.3725 21.1963 17.9804 21.1963Z" fill="#A4ACAD"/>
<path d="M12.7255 24.5686C11.9412 24.5686 11.2745 25.2353 11.2745 26.0196C11.2745 26.8039 11.9412 27.4706 12.7255 27.4706C13.5098 27.4706 14.1765 26.8039 14.1765 26.0196C14.1765 25.2353 13.5098 24.5686 12.7255 24.5686ZM12.7255 26.6862C12.3725 26.6862 12.0588 26.3725 12.0588 26.0196C12.0588 25.6666 12.3725 25.3529 12.7255 25.3529C13.0784 25.3529 13.3922 25.6666 13.3922 26.0196C13.3922 26.4117 13.0784 26.6862 12.7255 26.6862Z" fill="#A4ACAD"/>
</svg>
