<svg width="30" height="28" viewBox="0 0 30 28" fill="none" xmlns="http://www.w3.org/2000/svg">
<path d="M29.1087 10.5769C29.0309 10.4602 28.9531 10.3435 28.8364 10.3046C28.9531 10.149 29.0309 9.91562 28.992 9.72113C28.9531 8.86537 28.5641 7.11495 26.6581 4.93666C24.7132 2.75836 23.0017 2.17488 22.1848 2.01929C22.0292 1.98039 21.9125 2.01929 21.7958 2.01929C21.7569 1.8248 21.6402 1.63031 21.4846 1.51362C20.8234 0.969041 19.2674 0.113281 16.3501 0.113281C13.4327 0.113281 11.8768 1.00794 11.1766 1.51362C10.8265 1.7859 10.7098 2.21378 10.9043 2.60277L11.5267 4.042L15.4165 13.4554C15.4165 13.4943 15.4554 13.5332 15.4943 13.5721C15.4165 13.5332 15.2998 13.5332 15.1831 13.5332L4.95291 14.4278L3.39698 14.5445C2.9691 14.5834 2.61902 14.8946 2.54122 15.3225C2.38563 16.1782 2.34673 17.9675 3.74707 20.4959C5.1085 23.0632 6.66443 23.9968 7.44239 24.3468C7.55909 24.3857 7.67578 24.4246 7.83138 24.4246C7.83138 24.4246 7.83138 24.4246 7.87027 24.4246C7.87027 24.6191 7.94807 24.8136 8.06476 25.0081C8.60934 25.6694 9.89298 26.9141 12.7325 27.5754C13.7439 27.8088 14.5997 27.8866 15.3387 27.8866C16.6613 27.8866 17.5559 27.6143 18.0616 27.3809C18.1783 27.342 18.295 27.2253 18.3728 27.1475C18.5284 27.2642 18.7229 27.3809 18.9174 27.3809C18.9952 27.3809 19.073 27.3809 19.1507 27.3809C20.0843 27.3809 21.7569 27.1086 23.8963 25.5916C26.2691 23.919 27.0471 22.2852 27.3194 21.4684C27.3583 21.3517 27.3583 21.1961 27.3583 21.0794C27.5528 21.0405 27.7472 20.9627 27.9028 20.8071C28.5252 20.1847 29.5755 18.7455 29.8866 15.867C30.2756 12.9886 29.5755 11.316 29.1087 10.5769ZM21.8347 2.87505C21.8736 2.79726 21.9514 2.75836 21.9903 2.79726C22.7294 2.95285 24.2853 3.45852 26.0357 5.44233C27.7861 7.42614 28.1362 8.98207 28.1751 9.76003C28.1751 9.83783 28.1362 9.87672 28.0584 9.91562L27.4361 10.149C27.3583 9.37105 26.9693 7.89292 25.3745 6.0647C23.7796 4.23649 22.3015 3.69191 21.5235 3.53632L21.8347 2.87505ZM27.475 15.5948C27.2027 17.9675 26.308 19.0956 25.919 19.4846C25.8801 19.5235 25.8412 19.5235 25.8023 19.4846L21.2513 16.8395L17.2447 14.3111L21.7958 12.7941L26.7359 11.3938C26.7748 11.3938 26.8137 11.3938 26.8526 11.4327C27.1638 11.8994 27.7472 13.222 27.475 15.5948ZM21.2901 4.27539C21.7958 4.35318 23.1962 4.78106 24.8299 6.60928C26.4247 8.39859 26.6581 9.83783 26.697 10.3435C26.697 10.3824 26.6581 10.4213 26.6192 10.4213L21.6013 12.055L17.0502 13.3387L18.9563 8.94317L21.2124 4.31428C21.2124 4.27539 21.2513 4.27539 21.2901 4.27539ZM11.5656 2.33048C11.5267 2.25268 11.5656 2.17488 11.6045 2.13599C12.2269 1.66921 13.6272 0.891245 16.2723 0.891245C18.9174 0.891245 20.3177 1.66921 20.9012 2.13599C20.9401 2.17488 20.979 2.25268 20.9401 2.33048L20.6678 2.95285C20.0065 2.48607 18.684 1.7859 16.2723 1.7859C13.8606 1.7859 12.4603 2.48607 11.8379 2.95285L11.5656 2.33048ZM12.188 3.76971C12.188 3.73081 12.188 3.69191 12.2269 3.65302C12.6547 3.34183 13.8995 2.56387 16.3112 2.56387C18.6451 2.56387 19.8509 3.22514 20.3566 3.65302C20.3955 3.69191 20.3955 3.73081 20.3955 3.76971L18.295 8.63198L16.1167 13.1442L12.188 3.76971ZM16.1945 14.0388C16.1945 14.0777 16.1945 14.0777 16.1945 14.1166C16.1945 14.1166 16.1556 14.1166 16.1167 14.1555C16.0778 14.1555 16.0778 14.1555 16.0389 14.1166C16.0389 14.0777 16.0389 14.0388 16 13.9999L15.9611 13.961C16 13.961 16.0778 13.9999 16.1167 13.9999C16.1556 14.0388 16.1556 14.0388 16.1945 14.0388ZM15.7277 15.2058L16.7002 19.9125L17.517 24.9692C17.517 25.0081 17.517 25.047 17.4781 25.0859C17.0113 25.3193 15.611 25.7472 13.2771 25.2026C10.9432 24.658 9.93188 23.6467 9.58179 23.2188C9.5429 23.1799 9.5429 23.141 9.58179 23.1021L12.7325 18.8622L15.7277 15.2058ZM7.94807 23.6078C7.90917 23.6467 7.83138 23.6856 7.75358 23.6467C7.209 23.4133 5.73087 22.5575 4.40833 20.1069C3.16359 17.7731 3.16359 16.1782 3.31919 15.4392C3.31919 15.3614 3.39698 15.3225 3.47478 15.3225L4.17495 15.2836C4.05825 16.0615 4.09715 17.6175 5.2252 19.718C6.39214 21.8574 7.63688 22.7131 8.37595 23.0632L7.94807 23.6078ZM5.88647 19.3679C4.75842 17.2674 4.83621 15.8281 4.91401 15.2836C4.91401 15.2447 4.95291 15.2058 4.99181 15.2058L15.1831 14.35C15.1442 14.3889 15.1053 14.3889 15.1053 14.4278L12.1491 18.3954L8.92052 22.4019C8.88163 22.4408 8.84273 22.4408 8.80383 22.4408C8.29815 22.2074 7.05341 21.4684 5.88647 19.3679ZM17.7115 26.6807C17.1669 26.953 15.5721 27.4587 12.8492 26.8363C10.2431 26.214 9.07612 25.1248 8.60934 24.5413C8.57044 24.5024 8.57044 24.4246 8.60934 24.3468L9.03722 23.8023C9.5429 24.4246 10.7098 25.3971 13.0437 25.9417C13.9384 26.1362 14.6775 26.214 15.3387 26.214C16.4279 26.214 17.1669 25.9806 17.6337 25.7861L17.7504 26.4862C17.8282 26.6029 17.7893 26.6807 17.7115 26.6807ZM18.5284 24.9303L17.4781 19.7569L16.7002 15.0891L20.8623 17.5008L25.18 20.2625C25.2189 20.3014 25.2189 20.3403 25.2189 20.3792C25.0633 20.8849 24.4798 22.2074 22.496 23.6078C20.5122 24.9692 19.1119 25.0859 18.5673 25.047C18.5673 25.0081 18.5284 25.0081 18.5284 24.9303ZM23.4684 24.9692C21.2901 26.4862 19.6953 26.6418 18.9563 26.6029C18.8785 26.6029 18.8396 26.564 18.8007 26.4862L18.684 25.7861C18.7229 25.7861 18.7229 25.7861 18.7618 25.7861C19.5786 25.7861 21.0568 25.5527 22.9628 24.2302C24.9466 22.8298 25.6856 21.4684 25.919 20.7293L26.5025 21.0794C26.5803 21.1183 26.5803 21.1961 26.5803 21.2739C26.4247 21.8574 25.7634 23.3744 23.4684 24.9692ZM29.1476 15.7892C28.8364 18.4343 27.9028 19.718 27.3583 20.2625C27.3194 20.3014 27.2416 20.3403 27.1638 20.3014L26.5803 19.9514C27.1249 19.3679 27.9806 18.0842 28.2529 15.7115C28.5252 13.2998 27.9806 11.8605 27.5917 11.1604L28.2529 10.9659C28.3307 10.927 28.4085 10.9659 28.4474 11.0437C28.8364 11.666 29.4588 13.1442 29.1476 15.7892Z" fill="#A4ACAD"/>
<path d="M17.9449 3.38086C17.1669 3.38086 16.5446 4.00323 16.5446 4.78119C16.5446 5.55916 17.1669 6.18153 17.9449 6.18153C18.7229 6.18153 19.3452 5.55916 19.3452 4.78119C19.3452 4.00323 18.7229 3.38086 17.9449 3.38086ZM17.9449 5.44246C17.5948 5.44246 17.3225 5.17018 17.3225 4.82009C17.3225 4.47001 17.5948 4.19772 17.9449 4.19772C18.295 4.19772 18.5673 4.47001 18.5673 4.82009C18.5673 5.17018 18.295 5.44246 17.9449 5.44246Z" fill="#A4ACAD"/>
<path d="M16.1167 6.60938C15.3776 6.60938 14.7942 7.19285 14.7942 7.93191C14.7942 8.67098 15.3776 9.25445 16.1167 9.25445C16.8558 9.25445 17.4392 8.67098 17.4392 7.93191C17.4392 7.19285 16.8558 6.60938 16.1167 6.60938ZM16.0778 8.47649C15.7666 8.47649 15.5332 8.2431 15.5332 7.93191C15.5332 7.62073 15.7666 7.38734 16.0778 7.38734C16.389 7.38734 16.6224 7.62073 16.6224 7.93191C16.6224 8.2431 16.389 8.47649 16.0778 8.47649Z" fill="#A4ACAD"/>
<path d="M23.0406 6.5704C22.6127 6.10362 21.8736 6.06472 21.4069 6.4926C21.1735 6.6871 21.0568 6.99828 21.0179 7.27057C21.0179 7.58175 21.0957 7.89294 21.2902 8.08743C21.4846 8.35972 21.7958 8.51531 22.107 8.51531C22.1459 8.51531 22.1459 8.51531 22.1848 8.51531C22.4571 8.51531 22.7294 8.39861 22.9628 8.20412C23.4296 7.77624 23.4685 7.03718 23.0406 6.5704ZM22.3793 7.69845C22.3015 7.77624 22.2237 7.81514 22.107 7.77624C21.9903 7.77624 21.9125 7.73735 21.8347 7.65955C21.7569 7.58175 21.718 7.50396 21.7569 7.38726C21.7958 7.27057 21.8347 7.15387 21.9125 7.11498C21.9903 7.03718 22.0681 7.03718 22.1459 7.03718C22.2626 7.03718 22.3404 7.07608 22.4182 7.15387C22.5738 7.30947 22.5349 7.54286 22.3793 7.69845Z" fill="#A4ACAD"/>
<path d="M26.1913 16.1005C25.919 15.8282 25.6079 15.6337 25.2578 15.5948C24.5187 15.517 23.8185 16.0616 23.7407 16.8006C23.6629 17.5397 24.2075 18.2399 24.9466 18.3177C24.9855 18.3177 25.0633 18.3177 25.1022 18.3177C25.8023 18.3177 26.3858 17.812 26.4636 17.1118C26.5025 16.7617 26.3858 16.3728 26.1913 16.1005ZM25.0244 17.5786C24.6743 17.5397 24.4409 17.2285 24.4798 16.9173C24.5187 16.5673 24.8299 16.3339 25.1411 16.3728C25.2967 16.3728 25.4523 16.4895 25.5301 16.6062C25.6079 16.7229 25.6856 16.8784 25.6856 17.034C25.6467 17.3841 25.3356 17.6175 25.0244 17.5786Z" fill="#A4ACAD"/>
<path d="M26.5414 12.5997C26.3858 12.3663 26.1135 12.2107 25.8023 12.1718C25.4912 12.1329 25.18 12.2107 24.9466 12.4052C24.7132 12.5997 24.5576 12.872 24.5187 13.1832C24.4798 13.4944 24.5576 13.8056 24.7521 14.0389C24.9466 14.2723 25.2189 14.4279 25.53 14.4668C25.5689 14.4668 25.6078 14.4668 25.6467 14.4668C25.919 14.4668 26.1524 14.389 26.3469 14.2334C26.5803 14.0389 26.7359 13.7667 26.7748 13.4555C26.8137 13.1443 26.7359 12.8331 26.5414 12.5997ZM25.8801 13.6111C25.8023 13.6889 25.6856 13.6889 25.6078 13.6889C25.4912 13.6889 25.4134 13.6111 25.3745 13.5333C25.2967 13.4555 25.2967 13.3388 25.2967 13.261C25.2967 13.1443 25.3745 13.0665 25.4523 13.0276C25.53 12.9498 25.6467 12.9498 25.7245 12.9498C25.8412 12.9498 25.919 13.0276 25.9579 13.1054C25.9968 13.1832 26.0357 13.2999 26.0357 13.3777C26.0357 13.4555 25.9579 13.5722 25.8801 13.6111Z" fill="#A4ACAD"/>
<path d="M20.7067 18.3176C20.4733 18.0065 20.201 17.812 19.8509 17.7731C19.5008 17.6953 19.1508 17.7731 18.8396 18.0065C18.2561 18.4343 18.1005 19.2512 18.5284 19.8736C18.7618 20.2237 19.1897 20.4181 19.6175 20.4181C19.8898 20.4181 20.1621 20.3404 20.3955 20.1848C20.7067 19.9903 20.9012 19.6791 20.9401 19.329C21.0179 18.9789 20.9401 18.6288 20.7067 18.3176ZM20.1621 19.2123C20.1232 19.3679 20.0454 19.4846 19.9287 19.5624C19.6953 19.7569 19.3453 19.6791 19.1508 19.4068C18.9952 19.1734 19.0341 18.8233 19.3064 18.6288C19.5397 18.4732 19.8898 18.5121 20.0843 18.7844C20.1621 18.9011 20.201 19.0567 20.1621 19.2123Z" fill="#A4ACAD"/>
<path d="M15.1831 21.7407C14.8719 21.6629 14.5608 21.7018 14.3274 21.8963C14.0551 22.0519 13.8995 22.3242 13.8217 22.5965C13.6272 23.2188 14.0162 23.8412 14.6386 23.9968C14.7164 24.0357 14.833 24.0357 14.9108 24.0357C15.4165 24.0357 15.9222 23.6856 16.0389 23.141C16.1945 22.5187 15.8055 21.8963 15.1831 21.7407ZM15.222 22.9854C15.1831 23.1799 14.9886 23.2966 14.7553 23.2577C14.6386 23.2188 14.5608 23.1799 14.5219 23.1021C14.483 23.0243 14.5219 22.9076 14.5219 22.7909C14.5608 22.6742 14.5997 22.5965 14.6775 22.5576C14.7553 22.5187 14.7942 22.5187 14.8719 22.5187C14.9108 22.5187 14.9497 22.5187 14.9497 22.5187C15.1442 22.5576 15.2609 22.752 15.222 22.9854Z" fill="#A4ACAD"/>
<path d="M8.29816 16.1782C7.94807 15.5169 7.09231 15.2446 6.43104 15.6336C5.76978 15.9837 5.49749 16.8394 5.88647 17.5007C6.11986 17.9675 6.62554 18.2398 7.09231 18.2398C7.3257 18.2398 7.52019 18.2009 7.75358 18.0842C8.41485 17.6952 8.64824 16.8394 8.29816 16.1782ZM7.3646 17.384C7.05342 17.5396 6.70333 17.4229 6.54774 17.1506C6.39215 16.8394 6.50884 16.4894 6.78113 16.3338C7.09231 16.1782 7.4424 16.2949 7.59799 16.5672C7.75358 16.8394 7.63689 17.2284 7.3646 17.384Z" fill="#A4ACAD"/>
<path d="M11.8768 16.3338C11.7212 16.0227 11.41 15.7893 11.0988 15.6726C10.7487 15.5559 10.3987 15.5948 10.0875 15.7893C9.77629 15.9449 9.5429 16.256 9.42621 16.5672C9.30951 16.9173 9.34841 17.2674 9.5429 17.5786C9.69849 17.9287 9.97078 18.1621 10.3209 18.2399C10.4376 18.2788 10.5932 18.2788 10.7098 18.2788C10.9432 18.2788 11.1377 18.2399 11.3322 18.1232C11.6434 17.9676 11.8768 17.6564 11.9935 17.3452C12.1102 16.9951 12.0713 16.645 11.8768 16.3338ZM10.9432 17.4619C10.8265 17.5397 10.6709 17.5397 10.5154 17.5008C10.3598 17.4619 10.2431 17.3452 10.2042 17.2285C10.1653 17.1118 10.1264 16.9562 10.1653 16.8006C10.2042 16.645 10.3209 16.5283 10.4376 16.4894C10.5543 16.4116 10.7098 16.4116 10.8654 16.4505C11.021 16.4894 11.1377 16.6061 11.1766 16.7228C11.3322 16.9951 11.2155 17.3452 10.9432 17.4619Z" fill="#A4ACAD"/>
<path d="M13.316 10.8881L7.05342 2.79725L6.08096 1.5525C5.80867 1.20242 5.38079 1.08573 4.99181 1.28022C4.21385 1.6303 2.69682 2.56386 1.29648 5.09224C-0.10385 7.62062 -0.0649519 9.44883 0.0517427 10.3046C0.129539 10.7325 0.440725 11.0437 0.868605 11.0826L2.42453 11.1993L12.5381 12.2884C12.6159 12.2884 12.6548 12.2884 12.6548 12.2884C12.9659 12.2884 13.2382 12.1328 13.3938 11.8605C13.5494 11.5493 13.5494 11.1993 13.316 10.8881ZM1.64657 10.3824L0.985299 10.3046C0.907503 10.3046 0.868605 10.2268 0.829706 10.1879C0.713012 9.44883 0.713012 7.81511 1.95775 5.48122C3.24139 3.14733 4.60283 2.29157 5.2641 2.01928C5.3419 1.98038 5.41969 2.01928 5.45859 2.05818L5.88647 2.60275C5.14741 2.95284 3.90266 3.8086 2.73572 5.9091C1.56877 8.0485 1.52987 9.56553 1.64657 10.3824ZM12.7715 11.4715C12.7326 11.5104 12.7326 11.5104 12.6937 11.5104L2.58012 10.4213C2.50233 10.4213 2.46343 10.3824 2.46343 10.3435C2.38563 9.79892 2.30784 8.35969 3.47478 6.25918C4.64173 4.15868 5.88647 3.45851 6.35325 3.22513C6.39215 3.22513 6.43105 3.22513 6.46994 3.26402L12.7715 11.3548C12.8103 11.3937 12.8103 11.4326 12.7715 11.4715Z" fill="#A4ACAD"/>
<path d="M7.5202 5.48113C7.4035 5.13105 7.17011 4.81986 6.85893 4.66427C6.54774 4.46978 6.15876 4.43088 5.80868 4.54757C5.45859 4.66427 5.14741 4.89766 4.99181 5.20884C4.79732 5.52003 4.75842 5.90901 4.87512 6.25909C4.99181 6.60918 5.2252 6.92036 5.53639 7.11486C5.73088 7.23155 5.96427 7.27045 6.19766 7.27045C6.70333 7.27045 7.17011 6.99816 7.4035 6.53138C7.59799 6.2202 7.63689 5.83121 7.5202 5.48113ZM6.70333 6.1813C6.54774 6.49248 6.15876 6.57028 5.88647 6.41469C5.73088 6.33689 5.65308 6.2202 5.61419 6.0646C5.57529 5.90901 5.61419 5.75342 5.69198 5.59783C5.76978 5.44223 5.88647 5.36444 6.04207 5.32554C6.08096 5.32554 6.15876 5.28664 6.19766 5.28664C6.31435 5.28664 6.39215 5.32554 6.46995 5.36444C6.62554 5.44223 6.70333 5.55893 6.74223 5.71452C6.78113 5.87011 6.78113 6.02571 6.70333 6.1813Z" fill="#A4ACAD"/>
<path d="M8.14257 8.2429C7.598 7.85392 6.89783 8.04841 6.58664 8.63188C6.43105 8.90417 6.39215 9.21535 6.50885 9.52654C6.58664 9.83772 6.78113 10.0711 7.05342 10.2267C7.20901 10.3045 7.4035 10.3823 7.598 10.3823C7.71469 10.3823 7.83138 10.3823 7.90918 10.3434C8.22037 10.2656 8.45375 10.0711 8.60935 9.79882C8.92053 9.25425 8.72604 8.55408 8.14257 8.2429ZM7.94808 9.33205C7.83138 9.52654 7.63689 9.56544 7.4424 9.48764C7.36461 9.44874 7.28681 9.37094 7.24791 9.25425C7.20901 9.13756 7.24791 9.05976 7.28681 8.98196C7.32571 8.90417 7.4035 8.82637 7.5202 8.78747C7.5202 8.82637 7.5591 8.78747 7.598 8.78747C7.67579 8.78747 7.71469 8.78747 7.79249 8.82637C7.98698 8.94306 8.02587 9.13756 7.94808 9.33205Z" fill="#A4ACAD"/>
<path d="M4.83622 8.78758L4.36944 7.81512C4.29165 7.62063 4.05826 7.54284 3.86377 7.62063C3.66928 7.69843 3.59148 7.93182 3.66928 8.12631L4.13606 9.09876C4.21385 9.25435 4.33055 9.33215 4.48614 9.33215C4.52504 9.33215 4.60283 9.33215 4.64173 9.29325C4.83622 9.21546 4.91402 8.98207 4.83622 8.78758Z" fill="#A4ACAD"/>
<path d="M15.1053 5.6367L14.6386 4.66424C14.5608 4.46975 14.3274 4.39196 14.1329 4.46975C13.9384 4.54755 13.8606 4.78094 13.9384 4.97543L14.4052 5.94788C14.483 6.10348 14.5997 6.18127 14.7553 6.18127C14.7942 6.18127 14.872 6.18127 14.9109 6.14238C15.1053 6.06458 15.222 5.83119 15.1053 5.6367Z" fill="#A4ACAD"/>
<path d="M21.9514 10.499L21.4846 9.52655C21.4069 9.33206 21.1735 9.25426 20.979 9.33206C20.7845 9.40985 20.7067 9.64324 20.7845 9.83773L21.2513 10.8102C21.3291 10.9658 21.4458 11.0436 21.6013 11.0436C21.6402 11.0436 21.718 11.0436 21.7569 11.0047C21.9514 10.9269 22.0292 10.6935 21.9514 10.499Z" fill="#A4ACAD"/>
<path d="M12.6159 23.1799L12.1491 22.2075C12.0713 22.013 11.8379 21.9352 11.6434 22.013C11.4489 22.0908 11.3711 22.3242 11.4489 22.5186L11.9157 23.4911C11.9935 23.6467 12.1102 23.7245 12.2658 23.7245C12.3047 23.7245 12.3825 23.7245 12.4214 23.6856C12.6159 23.6078 12.6937 23.3744 12.6159 23.1799Z" fill="#A4ACAD"/>
<path d="M20.59 22.324L19.5008 22.1295C19.3063 22.0906 19.073 22.2462 19.0341 22.4407C18.9952 22.6352 19.1508 22.8686 19.3452 22.9075L20.4344 23.102C20.4733 23.102 20.4733 23.102 20.5122 23.102C20.7067 23.102 20.8623 22.9853 20.9012 22.7908C20.979 22.5574 20.8234 22.3629 20.59 22.324Z" fill="#A4ACAD"/>
<path d="M22.3793 15.0501L21.2901 14.8556C21.0957 14.8167 20.8623 14.9723 20.8234 15.1668C20.7845 15.3613 20.9401 15.5947 21.1346 15.6336L22.2237 15.8281C22.2626 15.8281 22.2626 15.8281 22.3015 15.8281C22.496 15.8281 22.6516 15.7114 22.6905 15.5169C22.7294 15.3224 22.5738 15.089 22.3793 15.0501Z" fill="#A4ACAD"/>
<path d="M25.0633 8.98199L23.9741 8.78749C23.7796 8.7486 23.5462 8.90419 23.5073 9.09868C23.4684 9.33207 23.624 9.52656 23.8185 9.56546L24.9077 9.75995C24.9466 9.75995 24.9466 9.75995 24.9855 9.75995C25.18 9.75995 25.3356 9.64325 25.3745 9.44876C25.4134 9.25427 25.2578 9.02088 25.0633 8.98199Z" fill="#A4ACAD"/>
<path d="M15.1053 19.7959L14.6386 18.8234C14.5608 18.6289 14.3274 18.5511 14.1329 18.6289C13.9384 18.7067 13.8606 18.9401 13.9384 19.1346L14.4052 20.1071C14.483 20.2627 14.5997 20.3405 14.7553 20.3405C14.7942 20.3405 14.872 20.3405 14.9109 20.3016C15.1053 20.2238 15.1831 19.9904 15.1053 19.7959Z" fill="#A4ACAD"/>
<path d="M9.07612 19.29C8.95943 19.1345 8.68714 19.0956 8.53155 19.2512L7.67579 19.9513C7.5202 20.068 7.4813 20.3403 7.63689 20.4959C7.71469 20.5737 7.83138 20.6515 7.94808 20.6515C8.02587 20.6515 8.10367 20.6126 8.18147 20.5737L9.03723 19.8735C9.19282 19.7179 9.23172 19.4845 9.07612 19.29Z" fill="#A4ACAD"/>
<path d="M19.812 11.0825C19.6953 10.9269 19.423 10.888 19.2675 11.0436L18.4117 11.7049C18.2561 11.8605 18.2172 12.0939 18.3728 12.2495C18.4506 12.3273 18.5673 12.4051 18.684 12.4051C18.7618 12.4051 18.8396 12.3662 18.9174 12.3273L19.7731 11.6271C19.9287 11.5104 19.9676 11.2381 19.812 11.0825Z" fill="#A4ACAD"/>
<path d="M23.274 20.457C23.1573 20.3014 22.885 20.2625 22.7294 20.4181L21.8736 21.1183C21.718 21.235 21.6791 21.5073 21.8347 21.6629C21.9125 21.7407 22.0292 21.7796 22.1459 21.7796C22.2237 21.7796 22.3015 21.7407 22.3793 21.7018L23.2351 21.0016C23.3907 20.8849 23.4295 20.6126 23.274 20.457Z" fill="#A4ACAD"/>
</svg>
