<svg width="30" height="30" viewBox="0 0 30 30" fill="none" xmlns="http://www.w3.org/2000/svg">
<g clip-path="url(#clip0_684_308)">
<path d="M15 9.21047C16.308 9.21047 17.6603 8.97887 18.6118 8.53517C18.6898 8.52372 18.7651 8.4892 18.8251 8.42942C19.4796 8.07798 19.8967 7.61172 19.8967 7.0381C19.8967 5.62711 17.3737 4.86572 14.9999 4.86572C12.626 4.86572 10.1031 5.62711 10.1031 7.0381C10.1031 8.44909 12.6261 9.21047 15 9.21047ZM14.4357 8.43306C14.4212 8.41067 14.4046 8.3893 14.385 8.36971L12.086 6.07064C12.4089 5.95344 12.7911 5.85142 13.2267 5.77492L15.866 8.41424C15.5916 8.43544 15.3029 8.44731 14.9999 8.44731C14.8059 8.44723 14.6182 8.44205 14.4357 8.43306ZM19.1335 7.0381C19.1335 7.23773 18.9521 7.46399 18.6129 7.676L16.6989 5.76203C18.2381 6.01831 19.1335 6.59423 19.1335 7.0381ZM15.4973 5.63983L17.8766 8.01921C17.5741 8.12641 17.2208 8.22003 16.8223 8.29246C16.82 8.29008 16.8184 8.28728 16.8161 8.28491L14.1893 5.65814C14.4472 5.63957 14.7171 5.62906 15 5.62906C15.1702 5.62897 15.3359 5.63287 15.4973 5.63983ZM11.3561 6.42021L13.2396 8.30365C11.7381 8.04253 10.8665 7.47612 10.8665 7.0381C10.8665 6.84474 11.0373 6.62637 11.3561 6.42021Z" fill="#A4ACAD"/>
<path d="M7.66428 15.5708C10.0382 15.5708 12.561 14.8094 12.561 13.3985C12.561 11.9875 10.0382 11.2261 7.66428 11.2261C5.29041 11.2261 2.76753 11.9875 2.76753 13.3985C2.76753 14.8094 5.29041 15.5708 7.66428 15.5708ZM5.00071 14.4498L6.5312 13.2136L8.1163 14.7987C7.96924 14.8044 7.81863 14.8076 7.6642 14.8076C6.58658 14.8076 5.68484 14.662 5.00071 14.4498ZM11.7978 13.3985C11.7978 13.8662 10.8034 14.4802 9.10971 14.7126L8.43338 14.0363L10.3838 12.3645C11.2906 12.6557 11.7978 13.0644 11.7978 13.3985ZM9.4714 12.1414L7.89215 13.495L6.45233 12.0552C6.82632 12.0133 7.23076 11.9893 7.66428 11.9893C8.33916 11.9893 8.94451 12.0467 9.4714 12.1414ZM5.52566 12.208L5.98853 12.6709L4.20753 14.1094L4.23195 14.1396C3.77714 13.8995 3.53078 13.6309 3.53078 13.3985C3.53078 12.9987 4.25722 12.4921 5.52566 12.208Z" fill="#A4ACAD"/>
<path d="M22.6949 9.36473V7.03843C22.6949 7.03733 22.6946 7.0364 22.6946 7.0353C22.6918 4.77226 19.3129 3 15 3C10.6852 3 7.3053 4.77379 7.3053 7.03818C7.3053 7.03826 7.3053 7.03835 7.3053 7.03843V7.03852V9.36482C3.16358 9.45997 -0.030365 11.1973 -0.030365 13.3985V22.9618C-0.030365 25.2261 3.34947 26.9999 7.66428 26.9999C11.1482 26.9999 14.0221 25.8434 15 24.206C15.9778 25.8434 18.8517 26.9999 22.3357 26.9999C26.6505 26.9999 30.0304 25.2262 30.0304 22.9618V13.3985C30.0304 11.1974 26.8366 9.46005 22.6949 9.36473ZM29.2671 13.3985C29.2671 15.1737 26.0928 16.6734 22.3357 16.6734C18.5786 16.6734 15.4042 15.1737 15.4042 13.3985C15.4042 11.6233 18.5785 10.1236 22.3356 10.1236C26.0928 10.1236 29.2671 11.6234 29.2671 13.3985ZM21.2853 9.39628C21.5299 9.21522 21.7462 9.02254 21.9317 8.82011V9.36558C21.7134 9.37126 21.4979 9.38169 21.2853 9.39628ZM15 12.1543C14.7587 11.7504 14.4024 11.3756 13.9496 11.0403C14.2925 11.0639 14.6429 11.0763 15 11.0763C15.357 11.0763 15.7074 11.0639 16.0503 11.0403C15.5975 11.3756 15.2411 11.7503 15 12.1543ZM15 3.76316C18.7572 3.76316 21.9314 5.26286 21.9314 7.03809C21.9314 8.81333 18.7572 10.313 15 10.313C11.2427 10.313 8.06855 8.81333 8.06855 7.03809C8.06855 5.26286 11.2427 3.76316 15 3.76316ZM8.7146 9.39628C8.50208 9.38169 8.28676 9.37118 8.06855 9.36558V8.82037C8.25394 9.0228 8.47019 9.2153 8.7146 9.39628ZM7.66428 10.1236C11.4215 10.1236 14.5957 11.6233 14.5957 13.3985C14.5957 15.1737 11.4215 16.6734 7.66428 16.6734C3.90707 16.6734 0.732884 15.1737 0.732884 13.3985C0.732884 11.6233 3.90707 10.1236 7.66428 10.1236ZM7.66428 26.2366C3.90707 26.2366 0.732884 24.7369 0.732884 22.9618V15.1809C1.96672 16.5278 4.57584 17.4367 7.66428 17.4367C10.7527 17.4367 13.3619 16.5278 14.5957 15.1808V22.9618C14.5957 24.7369 11.4215 26.2366 7.66428 26.2366ZM29.2671 22.9618C29.2671 24.737 26.0928 26.2367 22.3357 26.2367C18.5786 26.2367 15.4042 24.7369 15.4042 22.9618V15.1809C16.6381 16.5278 19.2472 17.4367 22.3356 17.4367C25.4241 17.4367 28.0332 16.5278 29.267 15.1809V22.9618H29.2671Z" fill="#A4ACAD"/>
<path d="M17.4389 13.3985C17.4389 14.8094 19.9618 15.5708 22.3356 15.5708C24.7094 15.5708 27.2324 14.8094 27.2324 13.3985C27.2324 11.9875 24.7094 11.2261 22.3356 11.2261C19.9618 11.2261 17.4389 11.9875 17.4389 13.3985ZM26.4692 13.3985C26.4692 13.9868 24.8967 14.8076 22.3357 14.8076C19.7748 14.8076 18.2022 13.9868 18.2022 13.3985C18.2022 12.81 19.7748 11.9893 22.3357 11.9893C24.8967 11.9893 26.4692 12.8101 26.4692 13.3985Z" fill="#A4ACAD"/>
<path d="M19.7434 13.4026C19.7434 14.1682 21.3675 14.2825 22.3356 14.2825C23.3038 14.2825 24.9278 14.1682 24.9278 13.4026C24.9278 12.6371 23.3038 12.5227 22.3356 12.5227C21.3675 12.5227 19.7434 12.6371 19.7434 13.4026ZM22.3356 13.5193C21.744 13.5193 21.2756 13.4665 20.9508 13.4026C21.2756 13.3388 21.744 13.286 22.3356 13.286C22.9271 13.286 23.3956 13.3387 23.7203 13.4026C23.3956 13.4665 22.9272 13.5193 22.3356 13.5193Z" fill="#A4ACAD"/>
</g>
<defs>
<clipPath id="clip0_684_308">
<rect width="30" height="30" fill="white"/>
</clipPath>
</defs>
</svg>
