<svg width="30" height="30" viewBox="0 0 30 30" fill="none" xmlns="http://www.w3.org/2000/svg">
<g clip-path="url(#clip0_684_332)">
<path d="M28.6652 9.03414C27.289 8.17525 25.9475 8.03884 24.7659 8.63248C24.4586 8.32774 23.8308 7.82707 22.9793 7.76493C22.2194 7.70936 21.4691 8.01153 20.7479 8.66248C20.6769 8.02863 20.3839 7.44037 19.9206 7.00195C19.3712 6.4909 18.6463 6.21065 17.896 6.21918C16.525 6.21918 15.3396 7.25141 15.0536 8.58301L11.7092 6.43029C11.6367 6.38371 11.5554 6.35252 11.4704 6.33866C11.3854 6.32479 11.2984 6.32854 11.2149 6.34968C11.1301 6.37157 11.0508 6.41065 10.9818 6.46448C10.9128 6.51831 10.8556 6.58575 10.8137 6.66261C10.7726 6.73802 10.7338 6.81448 10.6971 6.892C9.6206 6.49518 8.27144 6.77644 7.47111 7.60969C7.13561 7.95422 6.89495 8.37967 6.77251 8.84471C6.65007 9.30975 6.65002 9.79855 6.77236 10.2636H6.56997C6.05096 8.38553 4.14771 7.39757 4.06663 7.35628C3.98946 7.31694 3.90065 7.30686 3.81663 7.32792C3.73261 7.34897 3.65905 7.39973 3.60956 7.47082C3.56006 7.5419 3.53798 7.6285 3.54738 7.71461C3.55679 7.80072 3.59705 7.88051 3.66072 7.93923C3.69102 7.98811 3.92005 8.43458 3.39889 9.96001C2.09484 9.23175 0.72596 8.99739 0.451156 8.95616C0.418643 8.94962 0.385549 8.9464 0.352385 8.94654C0.261972 8.94809 0.175483 8.98375 0.110247 9.04637C0.0450119 9.10899 0.00584835 9.19394 0.000603913 9.28422C-0.00464052 9.37449 0.0244215 9.46341 0.081967 9.53316C0.139513 9.60292 0.221291 9.64835 0.310916 9.66035C0.313187 9.66035 0.333084 9.66346 0.368458 9.66914C0.390328 9.69937 0.491728 9.83973 0.49854 9.84929C0.695426 10.1276 0.970588 10.7425 1.1621 12.0917C1.30873 13.1233 1.89861 13.9949 2.54436 14.5567C2.07279 14.6596 1.73172 14.9441 1.68595 15.3083C1.6622 15.4961 1.65022 15.6853 1.6501 15.8746C1.6501 17.9291 3.01712 19.8452 5.49932 21.2699C6.68153 21.9485 8.05262 22.4776 9.54292 22.8418V24.1451C9.54292 24.2401 9.58069 24.3313 9.64793 24.3986C9.71516 24.4658 9.80635 24.5036 9.90144 24.5036H19.1708C19.2659 24.5036 19.3571 24.4658 19.4244 24.3986C19.4916 24.3313 19.5294 24.2401 19.5294 24.1451V22.8418C21.0197 22.4773 22.3908 21.9484 23.573 21.2699C26.0552 19.8451 27.4222 17.929 27.4222 15.8745C27.4221 15.6852 27.4102 15.4961 27.3864 15.3083C27.3723 15.2031 27.3343 15.1026 27.2752 15.0145C28.4337 14.5895 29.2703 13.6091 29.7145 12.6859C30.0208 12.055 30.0831 11.3331 29.8894 10.659C29.6958 9.98492 29.2597 9.40622 28.6652 9.03414ZM17.896 6.93622C18.9895 6.93622 19.843 7.63975 20.0177 8.62454C19.8137 8.62089 19.5845 8.62561 19.3404 8.64443C19.2007 8.32393 18.9545 8.0616 18.6435 7.9019C18.3325 7.74221 17.9758 7.69497 17.6339 7.7682C17.292 7.84144 16.986 8.03063 16.7677 8.30372C16.5494 8.5768 16.4322 8.91698 16.4361 9.26658C16.436 9.33809 16.44 9.40955 16.448 9.48062L15.7138 9.00803C15.8115 7.86663 16.7709 6.93622 17.896 6.93622ZM18.5682 8.75163C18.0687 8.84823 17.5899 9.03138 17.1535 9.29281C17.1535 9.28391 17.1529 9.2756 17.1529 9.26628C17.1485 9.09977 17.1965 8.93606 17.2902 8.79836C17.3839 8.66065 17.5186 8.55591 17.6751 8.49899C17.8317 8.44206 18.0022 8.43583 18.1625 8.48117C18.3227 8.52651 18.4647 8.62113 18.5682 8.75163ZM11.4015 7.08488L16.2032 10.1756C16.0733 10.3588 15.9626 10.5547 15.8726 10.7604L12.6639 8.69337C12.5883 8.64421 12.5023 8.61354 12.4126 8.60386C12.323 8.59417 12.2324 8.60574 12.1481 8.63762C12.063 8.6697 11.9866 8.72109 11.9248 8.78774C11.863 8.8544 11.8176 8.93449 11.792 9.02171C11.5783 9.75428 11.771 10.6911 12.3205 11.5919C12.8349 12.435 13.6346 13.2003 14.598 13.7794C14.4079 14.0078 14.2271 14.2283 14.1447 14.5143H13.9855C12.7171 13.5969 11.7538 12.3295 11.2688 10.9326C10.7875 9.54563 10.8353 8.18332 11.4015 7.08488ZM15.1192 12.7853C15.154 12.8074 15.1914 12.825 15.2306 12.8376C15.1711 12.9628 15.1044 13.0845 15.0309 13.2021C13.1735 12.1146 12.2748 10.4683 12.4408 9.40216L15.6436 11.4655C15.6339 11.5088 15.6247 11.5525 15.6163 11.597C15.5944 11.7125 15.5709 11.8219 15.5456 11.925C15.4421 11.8868 15.3286 11.8854 15.2241 11.921C15.1197 11.9566 15.0306 12.0271 14.972 12.1206C14.9045 12.2286 14.882 12.3588 14.9096 12.4831C14.9371 12.6075 15.0124 12.7161 15.1192 12.7854V12.7853ZM10.9056 11.9288C11.3767 12.9095 12.036 13.7879 12.846 14.5142H10.9056V11.9288ZM7.98839 8.10636C8.58633 7.48385 9.6292 7.26725 10.4392 7.56094C10.3856 7.7388 10.342 7.91954 10.3086 8.1023C10.112 8.03642 9.90593 8.00306 9.69858 8.00352C9.22392 8.00628 8.76973 8.19717 8.43563 8.53434C8.10153 8.87151 7.91479 9.32743 7.91638 9.80209C7.91707 9.95795 7.93775 10.1131 7.97793 10.2637H7.52381C7.38702 9.89728 7.35808 9.49937 7.44041 9.11704C7.52275 8.7347 7.71291 8.38397 7.98839 8.10636ZM10.3439 10.2634H8.73548C8.66961 10.1184 8.63485 9.96115 8.63342 9.80185C8.63157 9.51728 8.74268 9.24359 8.94237 9.04084C9.14205 8.83808 9.41401 8.72281 9.69858 8.72032C9.88214 8.7184 10.0634 8.76089 10.227 8.84419C10.2094 9.3203 10.2486 9.79681 10.3439 10.2636V10.2634ZM6.69061 10.9805H10.1885V14.5141H5.90522C5.94266 14.2147 5.9525 13.9125 5.93462 13.6112C6.49259 12.7135 6.74565 11.8319 6.69061 10.9807V10.9805ZM4.45161 8.47139C4.97744 8.88781 5.64249 9.56827 5.88568 10.4775C6.05646 11.1161 5.99599 11.7907 5.70899 12.4911C5.5831 12.1378 5.40825 11.804 5.18956 11.4992C4.86596 11.0555 4.47125 10.6682 4.02139 10.3531C4.28938 9.60281 4.43369 8.97212 4.45161 8.47139ZM1.87208 11.9908C1.74576 11.102 1.56704 10.3991 1.3389 9.89184C2.32638 10.1758 3.78579 10.7682 4.60619 11.9164C5.12867 12.6477 5.32096 13.5208 5.18161 14.5144H4.93448C4.49768 12.1145 3.13783 11.4344 3.07771 11.4055C3.03524 11.3849 2.98911 11.3729 2.94197 11.3701C2.89484 11.3674 2.84763 11.374 2.80305 11.3896C2.75848 11.4051 2.71742 11.4293 2.68222 11.4608C2.64703 11.4923 2.6184 11.5304 2.59797 11.573C2.57755 11.6155 2.56574 11.6617 2.56321 11.7089C2.56068 11.756 2.56749 11.8032 2.58324 11.8477C2.599 11.8922 2.62339 11.9332 2.65502 11.9682C2.68664 12.0033 2.72488 12.0317 2.76754 12.052C2.77865 12.0573 3.81375 12.5756 4.20525 14.5144H3.91312C3.31953 14.4479 2.0762 13.4259 1.8722 11.9907L1.87208 11.9908ZM18.8123 23.7865H10.2603V23.0026C13.0833 23.5638 15.9892 23.5638 18.8123 23.0026V23.7865ZM26.6821 16.2875H8.72681C8.63173 16.2875 8.54054 16.3253 8.4733 16.3926C8.40607 16.4598 8.3683 16.551 8.3683 16.6461C8.3683 16.7411 8.40607 16.8323 8.4733 16.8996C8.54054 16.9668 8.63173 17.0046 8.72681 17.0046H26.5371C26.1288 18.3674 24.9852 19.6325 23.2161 20.648C20.9037 21.9754 17.8209 22.7064 14.5363 22.7064C11.2518 22.7064 8.16926 21.9754 5.85658 20.648C4.08748 19.6326 2.94381 18.3675 2.53552 17.0046H6.21719C6.31228 17.0046 6.40347 16.9669 6.4707 16.8996C6.53794 16.8324 6.57571 16.7412 6.57571 16.6461C6.57571 16.551 6.53794 16.4599 6.4707 16.3926C6.40347 16.3254 6.31228 16.2876 6.21719 16.2876H2.3905C2.35771 15.9941 2.35971 15.6977 2.39647 15.4047C2.42575 15.3527 2.6209 15.2314 2.94022 15.2314H26.1323C26.4516 15.2314 26.6466 15.3528 26.676 15.4047C26.6955 15.5606 26.7052 15.7175 26.7053 15.8745C26.705 16.0125 26.6973 16.1504 26.6821 16.2875ZM16.1257 14.5143C16.695 14.2981 17.3349 14.0992 18.0127 13.9174C18.0247 13.9294 18.0366 13.9409 18.049 13.9521C18.3086 14.1675 18.5895 14.3558 18.8873 14.5143H16.1257ZM29.0682 12.3752C28.5822 13.3853 27.554 14.4775 26.1255 14.5143H20.6805C20.0565 14.3146 19.4597 14.0386 18.9034 13.6925C20.0645 13.4165 21.2875 13.1866 22.4207 13.0008C22.4368 13.0212 22.4535 13.0412 22.4718 13.0605C22.9231 13.5315 23.8207 14.3057 24.8428 14.3056C24.8726 14.3056 24.9032 14.3049 24.9334 14.3036C24.9808 14.302 25.0274 14.291 25.0705 14.2712C25.1136 14.2515 25.1524 14.2234 25.1846 14.1885C25.2168 14.1537 25.2417 14.1128 25.258 14.0683C25.2742 14.0238 25.2815 13.9764 25.2794 13.9291C25.2772 13.8817 25.2657 13.8352 25.2455 13.7923C25.2253 13.7494 25.1967 13.711 25.1615 13.6792C25.1264 13.6474 25.0852 13.6229 25.0405 13.6072C24.9958 13.5914 24.9484 13.5846 24.901 13.5873C24.2956 13.6137 23.694 13.2035 23.302 12.8623C25.3557 12.5516 26.9332 12.4007 26.9709 12.3972C27.0655 12.3883 27.1528 12.3422 27.2135 12.269C27.2742 12.1958 27.3033 12.1015 27.2944 12.0068C27.2856 11.9121 27.2395 11.8248 27.1663 11.7642C27.0931 11.7035 26.9987 11.6744 26.9041 11.6832C26.7492 11.6977 25.1682 11.849 23.1318 12.1579C23.4022 11.6675 23.9368 10.9822 24.8612 10.8298C24.9546 10.8139 25.0379 10.7616 25.0929 10.6845C25.1479 10.6073 25.1701 10.5115 25.1547 10.418C25.1393 10.3245 25.0875 10.241 25.0106 10.1855C24.9338 10.1301 24.8381 10.1074 24.7445 10.1223C23.2334 10.3715 22.5413 11.6608 22.3139 12.2036C22.302 12.2325 22.2918 12.262 22.2834 12.292C21.0992 12.4866 19.8164 12.7302 18.598 13.0265C18.7989 12.4544 19.2394 11.5864 20.1183 11.2886C20.1634 11.2738 20.205 11.2502 20.2409 11.2193C20.2767 11.1883 20.3061 11.1506 20.3273 11.1082C20.3484 11.0658 20.361 11.0196 20.3642 10.9724C20.3675 10.9251 20.3613 10.8777 20.3461 10.8328C20.3309 10.7879 20.3069 10.7465 20.2756 10.711C20.2443 10.6754 20.2063 10.6464 20.1637 10.6256C20.1211 10.6049 20.0748 10.5928 20.0275 10.59C19.9802 10.5872 19.9328 10.5939 19.8881 10.6095C18.4973 11.081 17.9705 12.546 17.8087 13.1539C17.8019 13.1801 17.7964 13.2067 17.7922 13.2335C16.8619 13.4855 15.995 13.7708 15.2707 14.091C15.6192 13.6618 16.0773 13.0104 16.3204 11.7313C16.5541 10.5028 17.3566 9.73708 18.7055 9.45552C19.3942 9.32316 20.1001 9.30614 20.7943 9.40515C20.8501 9.41491 20.9074 9.41131 20.9616 9.39462C21.0157 9.37794 21.0651 9.34866 21.1057 9.30919C21.7149 8.71763 22.3258 8.43876 22.9206 8.47987C23.805 8.54118 24.4018 9.29496 24.4069 9.3016C24.4607 9.37169 24.5384 9.41946 24.6253 9.43576C24.7121 9.45206 24.8018 9.43573 24.8774 9.38991C25.8877 8.77691 27.0344 8.86194 28.2853 9.64267C28.7298 9.92136 29.0556 10.3545 29.2002 10.8588C29.3447 11.3632 29.2978 11.9031 29.0684 12.375L29.0682 12.3752Z" fill="#A4ACAD"/>
<path d="M14.2959 10.8577C14.2424 10.8232 14.1826 10.7997 14.1199 10.7885C14.0572 10.7773 13.993 10.7787 13.9308 10.7925C13.8687 10.8063 13.8099 10.8323 13.7579 10.8691C13.7059 10.9058 13.6617 10.9524 13.6278 11.0064C13.5603 11.1143 13.5378 11.2444 13.5653 11.3687C13.5928 11.4931 13.668 11.6016 13.7748 11.671C13.8521 11.7212 13.9422 11.7479 14.0344 11.7479C14.0697 11.7479 14.1049 11.7441 14.1393 11.7364C14.2016 11.7228 14.2605 11.6969 14.3127 11.6601C14.3648 11.6234 14.4091 11.5766 14.4429 11.5226C14.5104 11.4146 14.5329 11.2844 14.5054 11.1601C14.4779 11.0357 14.4027 10.9271 14.2959 10.8577Z" fill="#A4ACAD"/>
<path d="M7.74862 19.988C7.70567 20.0728 7.69817 20.1712 7.72778 20.2616C7.75738 20.3519 7.82166 20.4268 7.90648 20.4698C9.23863 21.1432 10.7048 21.5093 12.1972 21.5412H12.2065C12.3016 21.5424 12.3932 21.5058 12.4613 21.4394C12.5294 21.373 12.5683 21.2823 12.5695 21.1872C12.5707 21.0921 12.534 21.0004 12.4676 20.9324C12.4012 20.8643 12.3105 20.8254 12.2154 20.8242C10.8295 20.7948 9.46777 20.455 8.23046 19.8299C8.18845 19.8086 8.14265 19.7959 8.09569 19.7923C8.04873 19.7887 8.00153 19.7944 7.95679 19.8091C7.91204 19.8238 7.87063 19.8472 7.83491 19.8779C7.79919 19.9085 7.76987 19.946 7.74862 19.988Z" fill="#A4ACAD"/>
<path d="M6.96267 19.0588C6.84717 18.976 6.73143 18.8892 6.61861 18.8009C6.54374 18.7422 6.44865 18.7158 6.35424 18.7272C6.25984 18.7387 6.17386 18.7872 6.11523 18.8621C6.05659 18.937 6.0301 19.0321 6.04158 19.1265C6.05306 19.2209 6.10157 19.3068 6.17644 19.3655C6.2972 19.46 6.42107 19.5528 6.54476 19.6415C6.58299 19.6695 6.62638 19.6895 6.67241 19.7006C6.71844 19.7116 6.7662 19.7135 6.81294 19.706C6.85968 19.6985 6.90447 19.6818 6.94473 19.6569C6.98499 19.632 7.01992 19.5993 7.0475 19.5609C7.07508 19.5224 7.09478 19.4788 7.10544 19.4327C7.1161 19.3866 7.11753 19.3388 7.10963 19.2922C7.10173 19.2455 7.08467 19.2008 7.05942 19.1608C7.03418 19.1207 7.00126 19.0861 6.96255 19.0588H6.96267Z" fill="#A4ACAD"/>
</g>
<defs>
<clipPath id="clip0_684_332">
<rect width="30" height="30" fill="white"/>
</clipPath>
</defs>
</svg>
