<svg width="30" height="30" viewBox="0 0 30 30" fill="none" xmlns="http://www.w3.org/2000/svg">
<path d="M27.65 15.3778C27.5326 15.1376 27.5326 14.8621 27.65 14.6219L28.7383 12.3955C29.3443 11.1558 28.8642 9.67826 27.6453 9.03156L25.4562 7.87004C25.22 7.74477 25.0581 7.52181 25.0119 7.25856L24.5838 4.8176C24.3454 3.45855 23.0882 2.54529 21.7223 2.73855L19.2685 3.08564C19.0037 3.12303 18.7418 3.03788 18.5497 2.85203L16.7686 1.12901C15.7769 0.16959 14.2232 0.169533 13.2316 1.12901L11.4504 2.8522C11.2582 3.03811 10.9963 3.12309 10.7316 3.08581L8.27783 2.73872C6.91142 2.54535 5.65472 3.45872 5.41632 4.81777L4.98819 7.25862C4.94197 7.52192 4.78005 7.74482 4.54393 7.87015L2.35483 9.03167C1.13597 9.67831 0.655861 11.156 1.26181 12.3956L2.35009 14.622C2.4675 14.8622 2.4675 15.1377 2.35009 15.3779L1.26175 17.6043C0.655804 18.8439 1.13591 20.3215 2.35477 20.9682L4.54387 22.1297C4.78005 22.255 4.94197 22.4779 4.98819 22.7412L5.41632 25.1821C5.63335 26.4193 6.69422 27.287 7.91347 27.2869C8.03356 27.2869 8.15541 27.2785 8.27789 27.2611L10.7316 26.914C10.9962 26.8765 11.2583 26.9618 11.4505 27.1477L13.2316 28.8707C13.7275 29.3504 14.3637 29.5903 15.0001 29.5902C15.6363 29.5902 16.2728 29.3503 16.7685 28.8707L18.5497 27.1477C18.7419 26.9618 19.0038 26.8769 19.2685 26.914L21.7223 27.2611C23.0888 27.4545 24.3454 26.5411 24.5838 25.1821L25.012 22.7412C25.0582 22.4779 25.2201 22.255 25.4562 22.1297L27.6453 20.9682C28.8642 20.3215 29.3443 18.8439 28.7383 17.6042L27.65 15.3778ZM26.8565 19.4814L24.6674 20.6429C23.9694 21.0133 23.4908 21.6721 23.3543 22.4503L22.9261 24.8912C22.8455 25.3511 22.4204 25.6599 21.958 25.5947L19.5043 25.2476C18.7218 25.1367 17.9474 25.3886 17.3795 25.9379L15.5984 27.6609C15.2629 27.9854 14.7373 27.9854 14.4017 27.6609L12.6206 25.9379C12.1406 25.4735 11.5131 25.2219 10.858 25.2219C10.738 25.2219 10.617 25.2304 10.4958 25.2475L8.04211 25.5946C7.58012 25.6599 7.15467 25.351 7.07397 24.8912L6.64578 22.4502C6.50922 21.6719 6.03059 21.0132 5.3326 20.6429L3.1435 19.4813C2.73109 19.2626 2.56866 18.7627 2.77367 18.3433L3.86201 16.1168C4.20898 15.4069 4.20898 14.5927 3.86201 13.8828L2.77367 11.6564C2.56866 11.237 2.73109 10.7371 3.1435 10.5183L5.3326 9.35676C6.03054 8.98636 6.50922 8.32764 6.64572 7.54934L7.07385 5.10844C7.15455 4.64862 7.57961 4.33972 8.04199 4.40503L10.4957 4.75212C11.2779 4.86286 12.0525 4.61112 12.6205 4.06176L14.4016 2.33875C14.7371 2.01423 15.2627 2.01423 15.5983 2.33875L17.3794 4.06176C17.9473 4.61117 18.7218 4.86286 19.5042 4.75212L21.9579 4.40503C22.4199 4.33966 22.8454 4.64862 22.926 5.10844L23.3542 7.5494C23.4907 8.32769 23.9693 8.98648 24.6673 9.35676L26.8564 10.5183C27.2688 10.7371 27.4313 11.237 27.2263 11.6564L26.1379 13.8828C25.7909 14.5926 25.7909 15.4069 26.1379 16.1168L27.2263 18.3431C27.4313 18.7627 27.2689 19.2626 26.8565 19.4814Z" fill="#A4ACAD"/>
<path d="M21.1487 8.8512C20.8201 8.52258 20.2872 8.52258 19.9586 8.8512L8.85129 19.9586C8.52267 20.2872 8.52267 20.82 8.85129 21.1487C9.01561 21.313 9.23098 21.3952 9.4463 21.3952C9.66162 21.3952 9.87706 21.313 10.0413 21.1487L21.1486 10.0413C21.4774 9.71265 21.4774 9.17988 21.1487 8.8512Z" fill="#A4ACAD"/>
<path d="M11.634 7.42627C9.93262 7.42627 8.54843 8.81046 8.54843 10.5118C8.54843 12.2132 9.93262 13.5974 11.634 13.5974C13.3353 13.5974 14.7195 12.2132 14.7195 10.5118C14.7195 8.81046 13.3353 7.42627 11.634 7.42627ZM11.634 11.9143C10.8606 11.9143 10.2315 11.2852 10.2315 10.5118C10.2315 9.73842 10.8606 9.10927 11.634 9.10927C12.4073 9.10927 13.0365 9.73842 13.0365 10.5118C13.0365 11.2852 12.4073 11.9143 11.634 11.9143Z" fill="#A4ACAD"/>
<path d="M18.366 16.4023C16.6646 16.4023 15.2805 17.7865 15.2805 19.4879C15.2805 21.1892 16.6646 22.5734 18.366 22.5734C20.0674 22.5734 21.4516 21.1892 21.4516 19.4879C21.4516 17.7865 20.0674 16.4023 18.366 16.4023ZM18.366 20.8904C17.5927 20.8904 16.9635 20.2612 16.9635 19.4879C16.9635 18.7146 17.5926 18.0854 18.366 18.0854C19.1393 18.0854 19.7685 18.7146 19.7685 19.4879C19.7685 20.2612 19.1393 20.8904 18.366 20.8904Z" fill="#A4ACAD"/>
</svg>
