<svg width="30" height="30" viewBox="0 0 30 30" fill="none" xmlns="http://www.w3.org/2000/svg">
<path d="M28.8824 1.17347C28.297 0.813259 27.5316 1.03839 27.1714 1.62374L21.0027 12.4302H0.920735C0.650574 12.4302 0.470467 12.6103 0.470467 12.8804V14.1862C0.470467 18.869 2.90192 23.1466 6.9093 25.488C6.59411 25.7581 6.41401 26.1634 6.41401 26.6136V28.5498C6.41401 28.8199 6.59411 29 6.86428 29H20.3273C20.5975 29 20.7776 28.8199 20.7776 28.5498V26.6136C20.7776 26.1634 20.5975 25.7581 20.2823 25.488C24.2897 23.1466 26.7211 18.914 26.7211 14.1862V12.8804C26.7211 12.6103 26.541 12.4302 26.2708 12.4302H23.8844L29.3777 2.88449C29.6929 2.29914 29.5128 1.53369 28.8824 1.17347ZM25.7755 13.3307V14.1862C25.7755 18.914 23.119 23.1015 18.8864 25.1728C18.7063 25.2628 18.6163 25.488 18.6613 25.6681C18.7063 25.8932 18.8864 26.0283 19.1116 26.0283H19.2917C19.6069 26.0283 19.832 26.2984 19.832 26.5686V28.0545H7.31454V26.5686C7.31454 26.2534 7.5847 26.0283 7.85487 26.0283H8.03497C8.26011 26.0283 8.44021 25.8932 8.48524 25.6681C8.53027 25.4429 8.44021 25.2628 8.26011 25.1728C4.02759 23.1015 1.371 18.914 1.371 14.1862V13.3307H25.7755ZM28.5672 2.43422L22.8038 12.4302H22.0383L27.9819 2.11904C28.0719 1.93893 28.297 1.8939 28.4321 1.98396C28.6122 2.07401 28.6573 2.25412 28.5672 2.43422Z" fill="#A4ACAD"/>
</svg>
