<svg width="30" height="30" viewBox="0 0 30 30" fill="none" xmlns="http://www.w3.org/2000/svg">
<g clip-path="url(#clip0_684_317)">
<path d="M29.2101 14.3031L26.8794 11.5909C26.5203 11.173 26.1306 10.7719 25.7212 10.3986C25.5407 10.2341 25.2609 10.247 25.0964 10.4275C24.9319 10.6079 24.9448 10.8877 25.1253 11.0522C25.4635 11.3606 25.786 11.69 26.0884 12.0317C26.1698 14.1607 25.7457 16.2893 24.8572 18.2238L21.738 16.8181C21.6502 16.7785 21.5619 16.7399 21.4734 16.702C22.0136 13.9159 21.717 11.0153 20.6337 8.4003C21.7078 8.76595 24.2797 10.491 25.2254 11.131C25.3014 11.1825 25.3875 11.2071 25.4729 11.2071C25.6147 11.2071 25.754 11.139 25.8395 11.0127C25.9764 10.8104 25.9234 10.5354 25.7212 10.3986C23.8129 9.10696 20.0542 7.09897 17.763 6.88805C17.3884 6.38848 16.7916 6.0647 16.1205 6.0647H12.7842C12.0415 6.0647 11.3898 6.46131 11.0295 7.05386C7.95898 7.61581 5.15725 9.22082 3.12054 11.5909L0.789833 14.3031C-0.105632 15.3452 -0.254581 16.8498 0.419229 18.0473C0.821852 18.7628 1.47308 19.2978 2.25303 19.554C2.32066 19.5763 2.38883 19.5956 2.45729 19.6133C2.35268 20.5801 2.62912 21.5459 3.24455 22.3182C3.95262 23.2067 5.01036 23.7163 6.14653 23.7163H11.863C12.1402 23.8562 12.4531 23.9356 12.7841 23.9356H16.1205C16.4516 23.9356 16.7644 23.8562 17.0416 23.7163H23.7944C24.9306 23.7163 25.9883 23.2067 26.6964 22.3182C27.3087 21.5498 27.585 20.5899 27.4847 19.6282C27.5727 19.6071 27.6602 19.5825 27.7469 19.554C28.5268 19.2978 29.1781 18.7628 29.5807 18.0473C30.2546 16.8499 30.1056 15.3451 29.2101 14.3031ZM19.5217 8.07687C20.7534 10.6488 21.1436 13.5671 20.6355 16.371C19.8351 16.0807 19.0112 15.8551 18.1724 15.6966V8.11661C18.1724 8.01714 18.165 7.91943 18.1512 7.82367C18.6129 7.88358 19.0704 7.96749 19.5217 8.07687ZM10.7322 8.11661V12.3843C9.87987 11.1482 8.83605 10.045 7.64858 9.1286C8.621 8.62903 9.6581 8.25353 10.7348 8.01566C10.7332 8.0491 10.7322 8.08277 10.7322 8.11661ZM1.19004 17.6136C0.698022 16.7392 0.806816 15.6405 1.4607 14.8795L2.71709 13.4175C3.21206 13.6873 3.69541 13.9909 4.15747 14.3235C4.23566 14.3797 5.48062 15.4922 5.57007 15.4922C5.70752 15.4922 5.91361 15.1201 6 15.0001C6.1427 14.8019 6.37691 14.9932 6.17872 14.8505C5.73842 14.5335 3.77537 12.9962 3.30587 12.7323L3.79129 12.1674C4.66187 11.1543 5.68217 10.2911 6.80731 9.60163C8.42086 10.7759 9.77232 12.312 10.7322 14.0649V15.9437C9.88571 16.1668 9.05617 16.4601 8.26189 16.8181L7.99595 16.938C7.45965 16.1879 6.8497 15.4869 6.17872 14.8505C6.00153 14.6824 5.72161 14.6897 5.5535 14.867C5.38545 15.0442 5.39282 15.3241 5.57007 15.4922C6.1572 16.0491 6.69368 16.6592 7.1716 17.3095L4.25972 18.6218C3.12184 19.1349 1.80217 18.7013 1.19004 17.6136ZM3.93629 21.7669C3.46968 21.1813 3.25876 20.4498 3.33536 19.7167C3.7756 19.7088 4.21343 19.6129 4.62313 19.4282L8.62542 17.6244C9.30459 17.3182 10.0112 17.063 10.7322 16.8609V20.6489H10.2895C10.0452 20.6489 9.8472 20.8468 9.8472 21.0911C9.8472 21.3354 10.0452 21.5334 10.2895 21.5334H10.7322V21.8835C10.7322 22.2255 10.8168 22.5479 10.9653 22.8317H6.14653C5.28119 22.8318 4.47559 22.4437 3.93629 21.7669ZM26.0047 21.7669C25.4654 22.4437 24.6598 22.8318 23.7945 22.8318H17.9394C18.0722 22.578 18.1539 22.2933 18.1696 21.9914C18.1761 21.9917 18.1825 21.9924 18.1891 21.9924H18.6808C18.925 21.9924 19.123 21.7944 19.123 21.5501C19.123 21.3058 18.925 21.1079 18.6808 21.1079H18.1891C18.1835 21.1079 18.178 21.1085 18.1725 21.1087V18.4424C18.1725 18.1981 17.9745 18.0001 17.7303 18.0001C17.486 18.0001 17.288 18.1981 17.288 18.4424V21.8836C17.288 22.5274 16.7643 23.0511 16.1206 23.0511H12.7843C12.1405 23.0511 11.6168 22.5274 11.6168 21.8836V8.11661C11.6168 7.47288 12.1405 6.94919 12.7843 6.94919H16.1206C16.7643 6.94919 17.288 7.47288 17.288 8.11661V18.3337C17.288 18.578 17.486 18.776 17.7303 18.776C17.9745 18.776 18.1725 18.578 18.1725 18.3337V16.5973C19.2758 16.8185 20.3507 17.163 21.3747 17.6245L25.377 19.4283C25.7685 19.6048 26.1854 19.7001 26.6057 19.7153C26.6826 20.4487 26.4717 21.1809 26.0047 21.7669ZM28.8099 17.6136C28.1979 18.7013 26.8784 19.1349 25.7403 18.6219L25.6628 18.587C26.46 16.849 26.9054 14.9646 26.9728 13.0566L28.5393 14.8795C29.1932 15.6404 29.3019 16.7392 28.8099 17.6136Z" fill="#A4ACAD"/>
<path d="M19.9919 18.0344H19.5657C19.3215 18.0344 19.1235 18.2324 19.1235 18.4767C19.1235 18.721 19.3215 18.9189 19.5657 18.9189H19.9919C20.2361 18.9189 20.4341 18.721 20.4341 18.4767C20.4341 18.2324 20.2361 18.0344 19.9919 18.0344Z" fill="#A4ACAD"/>
<path d="M22.3847 19.9036H21.6636C21.4193 19.9036 21.2213 20.1015 21.2213 20.3458C21.2213 20.5901 21.4193 20.7881 21.6636 20.7881H22.3847C22.6289 20.7881 22.8269 20.5901 22.8269 20.3458C22.8269 20.1015 22.6289 19.9036 22.3847 19.9036Z" fill="#A4ACAD"/>
<path d="M10.3712 19.276C10.3712 19.0317 10.1732 18.8337 9.92893 18.8337H9.14226C8.89802 18.8337 8.70001 19.0317 8.70001 19.276C8.70001 19.5203 8.89802 19.7182 9.14226 19.7182H9.92893C10.1732 19.7182 10.3712 19.5203 10.3712 19.276Z" fill="#A4ACAD"/>
<path d="M7.20834 20.6489H5.79886C5.55462 20.6489 5.35661 20.8469 5.35661 21.0912C5.35661 21.3355 5.55462 21.5334 5.79886 21.5334H7.20834C7.45258 21.5334 7.65059 21.3355 7.65059 21.0912C7.65059 20.8469 7.45258 20.6489 7.20834 20.6489Z" fill="#A4ACAD"/>
</g>
<defs>
<clipPath id="clip0_684_317">
<rect width="30" height="30" fill="white"/>
</clipPath>
</defs>
</svg>
