<svg width="30" height="30" viewBox="0 0 30 30" fill="none" xmlns="http://www.w3.org/2000/svg">
<path d="M13.4909 3.15166C14.3469 3.15166 15.0473 2.45127 15.0473 1.59524C15.0473 0.739207 14.3469 0.0388184 13.4909 0.0388184C13.2574 0.0388184 13.1017 0.19446 13.1017 0.427923C13.1017 0.661386 13.2574 0.817028 13.4909 0.817028C13.9189 0.817028 14.2691 1.16722 14.2691 1.59524C14.2691 2.02325 13.9189 2.37345 13.4909 2.37345C12.6348 2.37345 11.9344 3.07384 11.9344 3.92987C11.8955 4.7859 12.5959 5.48629 13.4909 5.48629C13.7243 5.48629 13.88 5.33065 13.88 5.09718C13.88 4.86372 13.7243 4.70808 13.4909 4.70808C13.0628 4.70808 12.7126 4.35788 12.7126 3.92987C12.7126 3.50185 13.0628 3.15166 13.4909 3.15166Z" fill="#A4ACAD"/>
<path d="M16.5648 3.11284C17.4208 3.11284 18.1212 2.41245 18.1212 1.55642C18.1212 0.700389 17.4208 0 16.5648 0C16.3313 0 16.1757 0.155642 16.1757 0.389105C16.1757 0.622568 16.3313 0.77821 16.5648 0.77821C16.9928 0.77821 17.343 1.1284 17.343 1.55642C17.343 1.98444 16.9928 2.33463 16.5648 2.33463C15.7088 2.33463 15.0084 3.03502 15.0084 3.89105C15.0084 4.74708 15.7088 5.44747 16.5648 5.44747C16.7982 5.44747 16.9539 5.29183 16.9539 5.05836C16.9539 4.8249 16.7982 4.66926 16.5648 4.66926C16.1368 4.66926 15.7866 4.31907 15.7866 3.89105C15.7866 3.46303 16.1368 3.11284 16.5648 3.11284Z" fill="#A4ACAD"/>
<path d="M26.9539 5.0584C26.7593 4.98058 26.5259 5.0584 26.448 5.29187L24.1523 11.0117H23.6854L21.1562 7.15957C21.0784 7.04284 20.9617 6.96502 20.8449 6.96502H9.40524C9.28851 6.96502 9.17178 7.00393 9.09396 7.12066L6.21458 10.9728H5.86439L3.56867 5.25296C3.49085 5.0584 3.25738 4.94167 3.06283 5.01949C2.86828 5.09731 2.75155 5.33078 2.82937 5.52533L5.20291 11.4397L6.52587 29.2218C6.52587 29.2996 6.52587 29.3386 6.52587 29.3775V29.6498C6.52587 29.8444 6.72042 30 6.91497 30H23.1017C23.2963 30 23.4908 29.8444 23.4908 29.6498L24.7749 11.4786L27.1484 5.56424C27.2652 5.33078 27.1484 5.13622 26.9539 5.0584ZM9.5998 7.74323H20.6504L22.7515 11.0117H7.18735L9.5998 7.74323ZM23.7243 11.7899L15.0084 20.8172L6.25349 11.7899H23.7243ZM6.05894 12.7238L14.4247 21.4008L7.22626 28.4047L6.05894 12.7238ZM7.49863 29.2218L14.9694 21.9456L22.2068 29.2218H7.49863ZM22.7905 28.7549L15.5531 21.3619L23.9578 12.646L22.7905 28.7549Z" fill="#A4ACAD"/>
</svg>
